<svg width="24" height="24" viewBox="0 0 24 24" fill="none" xmlns="http://www.w3.org/2000/svg">
<path d="M9.97621 1C9.64484 1 9.37621 1.26863 9.37621 1.6V8.77621C9.37621 9.10758 9.10758 9.37621 8.77621 9.37621H5.2406C4.70606 9.37621 4.43835 10.0225 4.81633 10.4005L11.744 17.3282C11.9783 17.5625 12.3582 17.5625 12.5925 17.3282L19.5202 10.4005C19.8982 10.0225 19.6305 9.37621 19.096 9.37621H15.5603C15.229 9.37621 14.9603 9.10758 14.9603 8.77621V1.6C14.9603 1.26863 14.6917 1 14.3603 1H9.97621ZM1.6 20.5445C1.26863 20.5445 1 20.8131 1 21.1445V22.7366C1 23.0679 1.26863 23.3366 1.6 23.3366H22.7366C23.0679 23.3366 23.3366 23.0679 23.3366 22.7366V21.1445C23.3366 20.8131 23.0679 20.5445 22.7366 20.5445H1.6Z" fill="white"/>
</svg>
