<svg width="38" height="38" viewBox="0 0 38 38" fill="none" xmlns="http://www.w3.org/2000/svg">
<g clip-path="url(#clip0_5882_77393)">
<path d="M34.303 9.44916H3.19696C1.43312 9.44916 0 10.8915 0 12.6666V32.1563C0 33.9314 1.43312 35.3737 3.19696 35.3737H15.4887C15.8562 35.3737 16.2237 35.5586 16.3706 35.8915C16.7932 36.853 17.7303 37.5187 18.8327 37.5187C19.9351 37.5187 20.8721 36.853 21.2947 35.8915C21.4417 35.5586 21.8092 35.3737 22.1766 35.3737H34.3214C36.0853 35.3737 37.5184 33.9314 37.5184 32.1563V12.6481C37.5184 10.873 36.0853 9.43066 34.3214 9.43066L34.303 9.44916Z" fill="#F07172"/>
<path d="M17.2529 6.98926H4.20786C3.32504 6.98926 2.60938 7.70951 2.60938 8.59799V31.3051C2.60938 32.1936 3.32504 32.9138 4.20786 32.9138H17.2529C18.1357 32.9138 18.8514 32.1936 18.8514 31.3051V8.59799C18.8514 7.70951 18.1357 6.98926 17.2529 6.98926Z" fill="#E1EBF9"/>
<path d="M33.4756 6.98926H20.4305C19.5477 6.98926 18.832 7.70951 18.832 8.59799V31.3051C18.832 32.1936 19.5477 32.9138 20.4305 32.9138H33.4756C34.3584 32.9138 35.0741 32.1936 35.0741 31.3051V8.59799C35.0741 7.70951 34.3584 6.98926 33.4756 6.98926Z" fill="#E1EBF9"/>
<path d="M18.1719 0.628911V2.27462C18.1719 2.62184 18.4516 2.90332 18.7966 2.90332C19.1416 2.90332 19.4213 2.62184 19.4213 2.27462V0.628911C19.4213 0.281691 19.1416 0.000212669 18.7966 0.000212669C18.4516 0.000212669 18.1719 0.281691 18.1719 0.628911Z" fill="#FBE46A"/>
<path d="M24.2054 2.62808L23.0491 3.79177C22.8052 4.03729 22.8052 4.43536 23.0491 4.68088C23.2931 4.92641 23.6886 4.92641 23.9326 4.68088L25.0889 3.51719C25.3328 3.27167 25.3328 2.8736 25.0889 2.62808C24.8449 2.38256 24.4494 2.38256 24.2054 2.62808Z" fill="#FBE46A"/>
<path d="M27.0822 8.32129H25.447C25.102 8.32129 24.8223 8.60277 24.8223 8.94999C24.8223 9.29721 25.102 9.57869 25.447 9.57869H27.0822C27.4272 9.57869 27.7069 9.29721 27.7069 8.94999C27.7069 8.60277 27.4272 8.32129 27.0822 8.32129Z" fill="#FBE46A"/>
<path d="M25.1996 14.4012L24.0433 13.2375C23.7993 12.992 23.4038 12.992 23.1598 13.2375C22.9159 13.483 22.9159 13.8811 23.1598 14.1266L24.3161 15.2903C24.5601 15.5359 24.9556 15.5359 25.1996 15.2903C25.4435 15.0448 25.4435 14.6467 25.1996 14.4012Z" fill="#FBE46A"/>
<path d="M12.4762 3.49331L13.6325 4.65701C13.8765 4.90253 14.272 4.90253 14.5159 4.65701C14.7599 4.41148 14.7599 4.01341 14.5159 3.76789L13.3597 2.6042C13.1157 2.35868 12.7202 2.35868 12.4762 2.6042C12.2323 2.84972 12.2323 3.24779 12.4762 3.49331Z" fill="#FBE46A"/>
<path d="M10.4002 9.63379H12.0355C12.3805 9.63379 12.6602 9.35231 12.6602 9.00509C12.6602 8.65787 12.3805 8.37639 12.0355 8.37639H10.4002C10.0552 8.37639 9.77554 8.65787 9.77554 9.00509C9.77554 9.35231 10.0552 9.63379 10.4002 9.63379Z" fill="#FBE46A"/>
<path d="M13.2516 15.4471L14.4079 14.2834C14.6518 14.0379 14.6518 13.6398 14.4079 13.3943C14.1639 13.1488 13.7684 13.1488 13.5244 13.3943L12.3682 14.558C12.1242 14.8035 12.1242 15.2016 12.3682 15.4471C12.6121 15.6926 13.0076 15.6926 13.2516 15.4471Z" fill="#FBE46A"/>
<path d="M26.9724 12.0006H32.0066C32.3557 12.0006 32.6313 11.7232 32.6313 11.3719C32.6313 11.0205 32.3557 10.7432 32.0066 10.7432H26.9724C26.6233 10.7432 26.3477 11.0205 26.3477 11.3719C26.3477 11.7232 26.6233 12.0006 26.9724 12.0006Z" fill="#BADAFD"/>
<path d="M32.0066 13.0918H26.9724C26.6233 13.0918 26.3477 13.3692 26.3477 13.7205C26.3477 14.0718 26.6233 14.3492 26.9724 14.3492H32.0066C32.3557 14.3492 32.6313 14.0718 32.6313 13.7205C32.6313 13.3692 32.3557 13.0918 32.0066 13.0918Z" fill="#BADAFD"/>
<path d="M32.0066 15.4219H26.9724C26.6233 15.4219 26.3477 15.6992 26.3477 16.0506C26.3477 16.4019 26.6233 16.6793 26.9724 16.6793H32.0066C32.3557 16.6793 32.6313 16.4019 32.6313 16.0506C32.6313 15.6992 32.3557 15.4219 32.0066 15.4219Z" fill="#BADAFD"/>
<path d="M32.0075 17.751H24.7868C24.4377 17.751 24.1621 18.0283 24.1621 18.3797C24.1621 18.731 24.4377 19.0084 24.7868 19.0084H32.0075C32.3566 19.0084 32.6322 18.731 32.6322 18.3797C32.6322 18.0283 32.3566 17.751 32.0075 17.751Z" fill="#BADAFD"/>
<path d="M32.006 20.0811H23.738C23.3889 20.0811 23.1133 20.3584 23.1133 20.7098C23.1133 21.0611 23.3889 21.3385 23.738 21.3385H32.006C32.3551 21.3385 32.6307 21.0611 32.6307 20.7098C32.6307 20.3584 32.3551 20.0811 32.006 20.0811Z" fill="#BADAFD"/>
<path d="M32.0066 22.4111H22.4157C22.0666 22.4111 21.791 22.6885 21.791 23.0398C21.791 23.3912 22.0666 23.6685 22.4157 23.6685H32.0066C32.3557 23.6685 32.6313 23.3912 32.6313 23.0398C32.6313 22.6885 32.3557 22.4111 32.0066 22.4111Z" fill="#BADAFD"/>
<path d="M32.0066 24.7598H22.4157C22.0666 24.7598 21.791 25.0371 21.791 25.3885C21.791 25.7398 22.0666 26.0172 22.4157 26.0172H32.0066C32.3557 26.0172 32.6313 25.7398 32.6313 25.3885C32.6313 25.0371 32.3557 24.7598 32.0066 24.7598Z" fill="#BADAFD"/>
<path d="M32.0066 27.0889H22.4157C22.0707 27.0889 21.791 27.3703 21.791 27.7176C21.791 28.0648 22.0707 28.3463 22.4157 28.3463H32.0066C32.3516 28.3463 32.6313 28.0648 32.6313 27.7176C32.6313 27.3703 32.3516 27.0889 32.0066 27.0889Z" fill="#BADAFD"/>
<path d="M5.95282 12.0006H10.9871C11.3362 12.0006 11.6118 11.7232 11.6118 11.3719C11.6118 11.0205 11.3362 10.7432 10.9871 10.7432H5.95282C5.60373 10.7432 5.32812 11.0205 5.32812 11.3719C5.32812 11.7232 5.60373 12.0006 5.95282 12.0006Z" fill="#BADAFD"/>
<path d="M5.95282 14.3492H10.9871C11.3362 14.3492 11.6118 14.0718 11.6118 13.7205C11.6118 13.3692 11.3362 13.0918 10.9871 13.0918H5.95282C5.60373 13.0918 5.32812 13.3692 5.32812 13.7205C5.32812 14.0718 5.60373 14.3492 5.95282 14.3492Z" fill="#BADAFD"/>
<path d="M5.95282 16.6793H10.9871C11.3362 16.6793 11.6118 16.4019 11.6118 16.0506C11.6118 15.6992 11.3362 15.4219 10.9871 15.4219H5.95282C5.60373 15.4219 5.32812 15.6992 5.32812 16.0506C5.32812 16.4019 5.60373 16.6793 5.95282 16.6793Z" fill="#BADAFD"/>
<path d="M5.95282 19.0084H13.1735C13.5226 19.0084 13.7982 18.731 13.7982 18.3797C13.7982 18.0283 13.5226 17.751 13.1735 17.751H5.95282C5.60373 17.751 5.32812 18.0283 5.32812 18.3797C5.32812 18.731 5.60373 19.0084 5.95282 19.0084Z" fill="#BADAFD"/>
<path d="M5.95282 21.3385H14.2208C14.5699 21.3385 14.8455 21.0611 14.8455 20.7098C14.8455 20.3584 14.5699 20.0811 14.2208 20.0811H5.95282C5.60373 20.0811 5.32812 20.3584 5.32812 20.7098C5.32812 21.0611 5.60373 21.3385 5.95282 21.3385Z" fill="#BADAFD"/>
<path d="M5.95282 23.6685H15.5437C15.8928 23.6685 16.1684 23.3912 16.1684 23.0398C16.1684 22.6885 15.8928 22.4111 15.5437 22.4111H5.95282C5.60373 22.4111 5.32812 22.6885 5.32812 23.0398C5.32812 23.3912 5.60373 23.6685 5.95282 23.6685Z" fill="#BADAFD"/>
<path d="M15.5253 24.7598H5.95282C5.60373 24.7598 5.32812 25.0371 5.32812 25.3885C5.32812 25.7398 5.60373 26.0172 5.95282 26.0172H15.5437C15.8928 26.0172 16.1684 25.7398 16.1684 25.3885C16.1684 25.0371 15.8928 24.7598 15.5437 24.7598H15.5253Z" fill="#BADAFD"/>
<path d="M15.5437 27.0889H5.95282C5.60781 27.0889 5.32812 27.3703 5.32812 27.7176C5.32812 28.0648 5.60781 28.3463 5.95282 28.3463H15.5437C15.8887 28.3463 16.1684 28.0648 16.1684 27.7176C16.1684 27.3703 15.8887 27.0889 15.5437 27.0889Z" fill="#BADAFD"/>
<path d="M21.1658 15.5508H16.4806C16.1051 15.5508 15.8008 15.8571 15.8008 16.235V17.0671C15.8008 17.4449 16.1051 17.7512 16.4806 17.7512H21.1658C21.5412 17.7512 21.8456 17.4449 21.8456 17.0671V16.235C21.8456 15.8571 21.5412 15.5508 21.1658 15.5508Z" fill="#49A8FA"/>
<path d="M16.5176 17.752V18.8059C16.5176 19.4162 17.0137 19.9154 17.62 19.9154H20.0269C20.6332 19.9154 21.1293 19.4162 21.1293 18.8059V17.752H16.536H16.5176Z" fill="#49A8FA"/>
<path d="M23.7559 8.94941C23.7559 6.08328 21.3673 3.79038 18.4827 3.97529C16.0023 4.14171 13.9813 6.19423 13.8526 8.69053C13.7792 10.0959 14.2936 11.3717 15.1755 12.3148C15.984 13.1839 16.48 14.3118 16.48 15.5138V15.5507H21.1101V15.5138C21.1101 14.3488 21.5327 13.2209 22.3411 12.3888C23.2047 11.5012 23.7559 10.2808 23.7559 8.93091V8.94941Z" fill="#FAD43A"/>
<path d="M18.8149 9.80078C17.9146 9.80078 17.1797 10.5404 17.1797 11.4465C17.1797 12.1492 17.639 12.7409 18.2637 12.9813V15.5515H19.3477V12.9813C19.9724 12.7594 20.4318 12.1676 20.4318 11.4465C20.4318 10.5404 19.6968 9.80078 18.7965 9.80078H18.8149ZM18.8149 12.0752C18.4658 12.0752 18.1902 11.7978 18.1902 11.4465C18.1902 11.0952 18.4658 10.8178 18.8149 10.8178C19.164 10.8178 19.4396 11.0952 19.4396 11.4465C19.4396 11.7978 19.164 12.0752 18.8149 12.0752Z" fill="#F8C339"/>
</g>
<defs>
<clipPath id="clip0_5882_77393">
<rect width="37.5" height="37.5" fill="white"/>
</clipPath>
</defs>
</svg>
