<svg width="7" height="10" viewBox="0 0 7 10" fill="none" xmlns="http://www.w3.org/2000/svg">
<path d="M3.75 3.37467C3.89366 3.37467 4.03143 3.43174 4.13302 3.53333C4.2346 3.63491 4.29167 3.77268 4.29167 3.91634V4.45801H3.20833V3.91634C3.20833 3.77268 3.2654 3.63491 3.36698 3.53333C3.46857 3.43174 3.60634 3.37467 3.75 3.37467ZM4.83333 4.49917V3.91634C4.83333 3.62902 4.7192 3.35347 4.51603 3.15031C4.31287 2.94714 4.03732 2.83301 3.75 2.83301C3.46268 2.83301 3.18713 2.94714 2.98397 3.15031C2.7808 3.35347 2.66667 3.62902 2.66667 3.91634V4.49917C2.37417 4.58909 2.125 4.82255 2.125 5.16217V6.46217C2.125 6.90417 2.54804 7.16634 2.9375 7.16634H4.5625C4.95196 7.16634 5.375 6.90417 5.375 6.46217V5.16217C5.375 4.82255 5.12583 4.58909 4.83333 4.49917ZM2.72354 5.06738C2.78532 5.0216 2.86063 4.99777 2.9375 4.99967H4.5625C4.63935 4.9979 4.71462 5.02171 4.77646 5.06738C4.8225 5.10422 4.83333 5.13942 4.83333 5.16217V6.46217C4.83333 6.48492 4.8225 6.52013 4.77646 6.55697C4.71468 6.60275 4.63937 6.62658 4.5625 6.62467H2.9375C2.86063 6.62658 2.78532 6.60275 2.72354 6.55697C2.6775 6.52013 2.66667 6.48492 2.66667 6.46217V5.16217C2.66667 5.13942 2.6775 5.10422 2.72354 5.06738Z" fill="#27A8F0"/>
<path d="M1.58333 0.666504C1.29602 0.666504 1.02047 0.780641 0.817301 0.983805C0.614137 1.18697 0.5 1.46252 0.5 1.74984V8.24984C0.5 8.53716 0.614137 8.81271 0.817301 9.01587C1.02047 9.21903 1.29602 9.33317 1.58333 9.33317H5.91667C6.20398 9.33317 6.47953 9.21903 6.6827 9.01587C6.88586 8.81271 7 8.53716 7 8.24984V1.74984C7 1.46252 6.88586 1.18697 6.6827 0.983805C6.47953 0.780641 6.20398 0.666504 5.91667 0.666504H1.58333ZM1.58333 1.20817H5.91667C6.06033 1.20817 6.1981 1.26524 6.29968 1.36682C6.40127 1.4684 6.45833 1.60618 6.45833 1.74984V8.24984C6.45833 8.3935 6.40127 8.53127 6.29968 8.63285C6.1981 8.73444 6.06033 8.7915 5.91667 8.7915H1.58333C1.43967 8.7915 1.3019 8.73444 1.20032 8.63285C1.09873 8.53127 1.04167 8.3935 1.04167 8.24984V1.74984C1.04167 1.60618 1.09873 1.4684 1.20032 1.36682C1.3019 1.26524 1.43967 1.20817 1.58333 1.20817Z" fill="#27A8F0"/>
</svg>
