<svg width="10" height="24" viewBox="0 0 10 24" fill="none" xmlns="http://www.w3.org/2000/svg">
<path d="M2.02925 23.9524C1.47439 23.9524 0.941382 23.6095 0.683615 23.0238C0.3341 22.2143 0.648663 21.2524 1.39138 20.8666C4.51517 19.2619 6.52925 15.7762 6.52925 12C6.52925 8.22379 4.51517 4.73808 1.39575 3.12855C0.653032 2.7476 0.338469 1.78093 0.687984 0.971409C1.0375 0.161886 1.92439 -0.180971 2.66711 0.199981C4.68119 1.23808 6.38944 2.87141 7.59963 4.92379C8.84041 7.03331 9.50012 9.48093 9.50012 12C9.50012 14.519 8.84041 16.9666 7.59526 19.0714C6.38507 21.1238 4.67682 22.7571 2.66274 23.7952C2.46177 23.9047 2.24332 23.9524 2.02925 23.9524Z" fill="url(#paint0_linear_3975_4022)"/>
<defs>
<linearGradient id="paint0_linear_3975_4022" x1="0.541016" y1="4.48106" x2="12.8003" y2="7.58317" gradientUnits="userSpaceOnUse">
<stop stop-color="#9638E3"/>
<stop offset="1" stop-color="#00CFB4"/>
</linearGradient>
</defs>
</svg>
