<svg width="24" height="24" viewBox="0 0 24 24" fill="none" xmlns="http://www.w3.org/2000/svg">
<path d="M1.5834 20.4536C1.25203 20.4536 0.983398 20.7222 0.983398 21.0536V22.6457C0.983398 22.9771 1.25203 23.2457 1.5834 23.2457H22.72C23.0513 23.2457 23.32 22.9771 23.32 22.6457V21.0536C23.32 20.7222 23.0513 20.4536 22.72 20.4536H1.5834Z" fill="white"/>
<path d="M9.35953 9.74918V16.9254C9.35953 17.2568 9.62816 17.5254 9.95953 17.5254H14.3437C14.675 17.5254 14.9437 17.2568 14.9437 16.9254V9.74918C14.9437 9.41781 15.2123 9.14918 15.5437 9.14918H19.0793C19.6138 9.14918 19.8815 8.5029 19.5035 8.12492L12.5759 1.19724C12.3415 0.962921 11.9616 0.962923 11.7273 1.19724L4.79965 8.12492C4.42168 8.5029 4.68938 9.14918 5.22392 9.14918H8.75953C9.0909 9.14918 9.35953 9.41781 9.35953 9.74918Z" fill="white"/>
</svg>
