<svg width="40" height="40" viewBox="0 0 40 40" fill="none" xmlns="http://www.w3.org/2000/svg">
<path d="M10.2325 23.2842H9.04756C7.73874 23.2842 6.67773 24.3452 6.67773 25.654V36.63C6.67773 37.9389 7.73874 38.9999 9.04756 38.9999H10.2325C11.5413 38.9999 12.6023 37.9389 12.6023 36.63V25.654C12.6023 24.3452 11.5413 23.2842 10.2325 23.2842Z" fill="#2BBBFA"/>
<path d="M12.6133 25.9763L15.43 22.9725C15.6379 22.7646 18.5378 16.2164 18.5378 16.2164C18.8808 14.9795 20.3776 14.5118 21.365 15.3329C21.8327 15.7175 22.0614 16.3203 21.9886 16.9128L21.708 23.3051C21.6872 23.4714 21.812 23.6169 21.9783 23.6169H29.5555C31.1665 23.6169 32.393 25.0824 32.1124 26.6727L30.8547 33.9797C30.3974 36.547 28.1523 38.4179 25.5434 38.4179H16.511C15.7523 38.4179 15.0143 38.1996 14.3907 37.7839C13.2785 37.0667 12.6133 35.8298 12.6133 34.5098V27.0781V25.9763Z" fill="#FADECF"/>
<path d="M6.59254 8.004L7.56957 9.97885C7.67351 10.1971 7.88139 10.3426 8.11006 10.3738L10.2824 10.6856C10.8749 10.7688 11.1139 11.4964 10.6878 11.9225L9.11828 13.4608C8.95197 13.6271 8.86882 13.8662 8.9104 14.1053L9.28458 16.2672C9.38852 16.8597 8.76488 17.3066 8.23479 17.026L6.29111 16.0074C6.08323 15.893 5.83378 15.893 5.61551 16.0074L3.67183 17.026C3.14174 17.3066 2.5181 16.8493 2.62204 16.2672L2.99622 14.1053C3.0378 13.8662 2.95465 13.6271 2.78834 13.4608L1.21885 11.9225C0.7927 11.5068 1.02137 10.7792 1.62422 10.6856L3.79656 10.3738C4.03562 10.3426 4.23311 10.1867 4.33705 9.97885L5.31408 8.004C5.58432 7.46351 6.34308 7.46351 6.61333 8.004H6.59254Z" fill="#F5D956"/>
<path d="M34.5925 8.004L35.5696 9.97885C35.6735 10.1971 35.8814 10.3426 36.1101 10.3738L38.2824 10.6856C38.8749 10.7688 39.1139 11.4964 38.6878 11.9225L37.1183 13.4608C36.952 13.6271 36.8688 13.8662 36.9104 14.1053L37.2846 16.2672C37.3885 16.8597 36.7649 17.3066 36.2348 17.026L34.2911 16.0074C34.0832 15.893 33.8338 15.893 33.6155 16.0074L31.6718 17.026C31.1417 17.3066 30.5181 16.8493 30.622 16.2672L30.9962 14.1053C31.0378 13.8662 30.9546 13.6271 30.7883 13.4608L29.2189 11.9225C28.7927 11.5068 29.0214 10.7792 29.6242 10.6856L31.7966 10.3738C32.0356 10.3426 32.2331 10.1867 32.337 9.97885L33.3141 8.004C33.5843 7.46351 34.3431 7.46351 34.6133 8.004H34.5925Z" fill="#F5D956"/>
<path d="M20.9027 1.54724L22.2817 4.2456C22.4238 4.53471 22.7224 4.74122 23.0494 4.78252L26.12 5.2093C26.9588 5.3332 27.3 6.32444 26.6887 6.90265L24.471 8.99526C24.2293 9.2293 24.1156 9.54594 24.1724 9.87635L24.6984 12.8363C24.8406 13.6485 23.9592 14.2681 23.2199 13.8826L20.4762 12.4783C20.1777 12.3269 19.8223 12.3269 19.5238 12.4783L16.7801 13.8826C16.0266 14.2681 15.1594 13.6485 15.3016 12.8363L15.8276 9.87635C15.8844 9.55971 15.7707 9.2293 15.529 8.99526L13.3113 6.90265C12.7 6.32444 13.0412 5.3332 13.88 5.2093L16.9506 4.78252C17.2776 4.74122 17.5762 4.53471 17.7183 4.2456L19.0973 1.54724C19.4669 0.817586 20.5615 0.817586 20.9312 1.54724H20.9027Z" fill="#F5D956"/>
</svg>
