<svg width="40" height="40" viewBox="0 0 40 40" fill="none" xmlns="http://www.w3.org/2000/svg">
<path d="M4.13916 3C3.51015 3 3 3.50738 3 4.13298V35.866C3 36.4916 3.51015 37 4.13916 37H28.2972C28.9262 37 29.4364 36.4926 29.4364 35.866V9.98935L22.41 3H4.13916Z" fill="#E1EBF9"/>
<path opacity="0.05" d="M16.2188 37H28.2973C28.9263 37 29.4364 36.4926 29.4364 35.866V9.98935L22.41 3H16.2188V37Z" fill="black"/>
<path opacity="0.1" d="M22.1973 8.80302L22.4108 3L29.4372 9.98935L23.3732 10.0113C22.7453 9.96948 22.2183 9.42862 22.1973 8.80302Z" fill="black"/>
<path d="M22.5984 8.40338L22.4102 3L29.4366 9.98935L23.7744 9.61169C23.1465 9.56985 22.6195 9.02898 22.5984 8.40338Z" fill="white"/>
<g opacity="0.1">
<path d="M23.5776 12.7539H8.85938C8.30709 12.7539 7.85938 13.2016 7.85938 13.7539V13.9958C7.85938 14.5481 8.30709 14.9958 8.85938 14.9958H23.5776C24.1299 14.9958 24.5776 14.5481 24.5776 13.9958V13.7539C24.5776 13.2016 24.1299 12.7539 23.5776 12.7539Z" fill="#004692"/>
<path d="M23.5776 16.8652H8.85938C8.30709 16.8652 7.85938 17.3129 7.85938 17.8652V18.1071C7.85938 18.6594 8.30709 19.1071 8.85938 19.1071H23.5776C24.1299 19.1071 24.5776 18.6594 24.5776 18.1071V17.8652C24.5776 17.3129 24.1299 16.8652 23.5776 16.8652Z" fill="#004692"/>
<path d="M23.5776 20.9756H8.85938C8.30709 20.9756 7.85938 21.4233 7.85938 21.9756V22.2175C7.85938 22.7698 8.30709 23.2175 8.85938 23.2175H23.5776C24.1299 23.2175 24.5776 22.7698 24.5776 22.2175V21.9756C24.5776 21.4233 24.1299 20.9756 23.5776 20.9756Z" fill="#004692"/>
<path d="M23.5776 25.0869H8.85938C8.30709 25.0869 7.85938 25.5346 7.85938 26.0869V26.3288C7.85938 26.8811 8.30709 27.3288 8.85938 27.3288H23.5776C24.1299 27.3288 24.5776 26.8811 24.5776 26.3288V26.0869C24.5776 25.5346 24.1299 25.0869 23.5776 25.0869Z" fill="#004692"/>
<path d="M23.5776 29.1973H8.85938C8.30709 29.1973 7.85938 29.645 7.85938 30.1973V30.4392C7.85938 30.9915 8.30709 31.4392 8.85938 31.4392H23.5776C24.1299 31.4392 24.5776 30.9915 24.5776 30.4392V30.1973C24.5776 29.645 24.1299 29.1973 23.5776 29.1973Z" fill="#004692"/>
</g>
<path d="M27.1859 34.6715C32.2591 34.6715 36.3718 30.5812 36.3718 25.5355C36.3718 20.4898 32.2591 16.3994 27.1859 16.3994C22.1127 16.3994 18 20.4898 18 25.5355C18 30.5812 22.1127 34.6715 27.1859 34.6715Z" fill="#49A8FA"/>
<path d="M19.2548 26.7905C18.8572 26.4233 18.8246 25.8092 19.1801 25.4012C20.3908 24.013 23.3423 21.1423 27.1406 21.0074C30.9788 20.8703 34.2617 23.9481 35.5923 25.4012C35.9646 25.8082 35.9373 26.4369 35.5313 26.8104C34.0902 28.1359 30.637 30.9647 27.4036 30.9647C24.1701 30.9647 20.6832 28.1087 19.2548 26.7915V26.7905Z" fill="#E0DBC0"/>
<path d="M28.8516 29.8006C30.9709 28.9046 31.9585 26.4696 31.0577 24.3618C30.1568 22.254 27.7085 21.2717 25.5892 22.1677C23.47 23.0637 22.4823 25.4987 23.3831 27.6065C24.284 29.7142 26.7323 30.6966 28.8516 29.8006Z" fill="#05465A"/>
</svg>
