<svg width="30" height="30" viewBox="0 0 30 30" fill="none" xmlns="http://www.w3.org/2000/svg">
<path d="M23.0297 25.5879L3.31836 15.8393L23.3916 4.43652L24.4036 6.12316L7.50726 15.722L23.9412 23.8492L23.0297 25.5879Z" fill="#F7931E"/>
<path d="M23.9012 10.2327C26.7181 10.2327 29.0016 8.01399 29.0016 5.27701C29.0016 2.54004 26.7181 0.321289 23.9012 0.321289C21.0843 0.321289 18.8008 2.54004 18.8008 5.27701C18.8008 8.01399 21.0843 10.2327 23.9012 10.2327Z" fill="#F7931E"/>
<path d="M19.4442 5.27701C19.4442 2.64612 21.5554 0.497116 24.2229 0.334313C24.1157 0.327801 24.0084 0.321289 23.9012 0.321289C21.0862 0.321289 18.8008 2.54192 18.8008 5.27701C18.8008 8.01211 21.0862 10.2327 23.9012 10.2327C24.0084 10.2327 24.1157 10.2262 24.2229 10.2197C21.5554 10.0569 19.4442 7.90791 19.4442 5.27701Z" fill="#F46221"/>
<path d="M5.35432 20.7366C8.1712 20.7366 10.4547 18.5179 10.4547 15.7809C10.4547 13.0439 8.1712 10.8252 5.35432 10.8252C2.53744 10.8252 0.253906 13.0439 0.253906 15.7809C0.253906 18.5179 2.53744 20.7366 5.35432 20.7366Z" fill="#F7931E"/>
<path d="M0.897322 15.7809C0.897322 13.15 3.00853 11.001 5.67603 10.8382C5.56879 10.8317 5.46155 10.8252 5.35432 10.8252C2.53937 10.8252 0.253906 13.0458 0.253906 15.7809C0.253906 18.516 2.53937 20.7366 5.35432 20.7366C5.46155 20.7366 5.56879 20.7301 5.67603 20.7236C3.00853 20.5608 0.897322 18.4118 0.897322 15.7809Z" fill="#F46221"/>
<path d="M23.4832 29.6771C26.3001 29.6771 28.5836 27.4583 28.5836 24.7214C28.5836 21.9844 26.3001 19.7656 23.4832 19.7656C20.6663 19.7656 18.3828 21.9844 18.3828 24.7214C18.3828 27.4583 20.6663 29.6771 23.4832 29.6771Z" fill="#F7931E"/>
<path d="M19.0262 24.7214C19.0262 22.0905 21.1374 19.9415 23.8049 19.7786C23.6977 19.7721 23.5905 19.7656 23.4832 19.7656C20.6683 19.7656 18.3828 21.9863 18.3828 24.7214C18.3828 27.4564 20.6683 29.6771 23.4832 29.6771C23.5905 29.6771 23.6977 29.6706 23.8049 29.6641C21.1374 29.5013 19.0262 27.3522 19.0262 24.7214Z" fill="#F46221"/>
</svg>
