Group_35010.svg<svg width="16" height="16" viewBox="0 0 16 16" fill="none" xmlns="http://www.w3.org/2000/svg">
<path d="M11.9778 14.8337C11.6992 14.8263 11.4265 14.7516 11.1832 14.6161L9.17892 13.5674C8.84017 13.4186 8.47398 13.3417 8.10373 13.3417C7.73348 13.3417 7.3673 13.4186 7.02855 13.5674L5.02564 14.6161C4.78235 14.7516 4.50967 14.8263 4.23102 14.8337C4.07452 14.8371 3.9192 14.8058 3.77634 14.7421C3.63347 14.6783 3.50663 14.5837 3.40501 14.4651C3.23298 14.2624 3.05002 13.8884 3.15788 13.2641L3.54017 11.0417C3.6494 10.4065 3.33947 9.45442 2.87527 9.0015L1.25464 7.42921C0.65663 6.84979 0.708515 6.32887 0.793165 6.06908C0.877814 5.8093 1.14132 5.3591 1.96733 5.23941L4.20781 4.9157C4.84814 4.82185 5.66187 4.23564 5.94858 3.65623L6.94936 1.63373C7.31936 0.888384 7.83135 0.776855 8.10441 0.776855C8.37748 0.776855 8.88947 0.888384 9.25811 1.63373L10.2602 3.65623C10.547 4.23428 11.3607 4.82185 12.001 4.9157L14.2442 5.23941C15.0634 5.3591 15.3365 5.81066 15.4184 6.06908C15.5003 6.32751 15.5549 6.84707 14.9569 7.42921L13.3363 9.00422C12.8721 9.45442 12.5622 10.4065 12.6714 11.0444L13.0537 13.2668C13.1615 13.8911 12.9786 14.2652 12.8066 14.4678C12.7044 14.5863 12.577 14.6806 12.4336 14.7439C12.2903 14.8072 12.1346 14.8379 11.9778 14.8337Z" fill="url(#paint0_radial_7810_36258)"/>
<path d="M15.1569 6.15493C15.0913 5.95771 14.8838 5.61088 14.2012 5.51159L11.9607 5.18788C11.2316 5.08179 10.3414 4.4371 10.0151 3.7788L9.01297 1.7563C8.70987 1.14289 8.31256 1.05176 8.10367 1.05176C7.89478 1.05176 7.49747 1.14289 7.19437 1.7563L6.1895 3.7788C5.86319 4.4371 4.97301 5.08179 4.24393 5.18788L2.00755 5.51159C1.32489 5.60952 1.11736 5.95771 1.05183 6.15493C0.986292 6.35215 0.952159 6.75747 1.44367 7.23487L3.06566 8.80989C3.59268 9.32129 3.93264 10.3645 3.8084 11.0881L3.42611 13.3105C3.336 13.8314 3.47799 14.1266 3.61316 14.2898C3.68886 14.3785 3.78367 14.449 3.89052 14.4961C3.99737 14.5432 4.1135 14.5656 4.23028 14.5618C4.46467 14.5544 4.69375 14.4904 4.89792 14.3755L6.90083 13.3268C7.27914 13.1578 7.68906 13.0705 8.10367 13.0705C8.51828 13.0705 8.9282 13.1578 9.30651 13.3268L11.3094 14.3769C11.5136 14.4918 11.7427 14.5557 11.9771 14.5632C12.0938 14.567 12.21 14.5445 12.3168 14.4974C12.4237 14.4503 12.5185 14.3798 12.5942 14.2912C12.7307 14.132 12.8672 13.8328 12.7812 13.3119L12.4003 11.0881C12.2761 10.3645 12.616 9.31993 13.143 8.80989L14.765 7.23487C15.2565 6.75747 15.221 6.35351 15.1569 6.15493Z" fill="url(#paint1_radial_7810_36258)"/>
<path d="M7.51605 2.06498C7.51605 2.06498 6.77741 3.65088 6.44974 4.67641C6.12206 5.70194 8.36118 3.15172 8.37756 2.269C8.39394 1.38628 7.85055 1.31963 7.51605 2.06498Z" fill="white"/>
<path d="M6.18816 5.60932C6.18843 5.65995 6.17361 5.70952 6.14557 5.75175C6.11753 5.79398 6.07753 5.82697 6.03066 5.84653C5.98378 5.86609 5.93213 5.87135 5.88225 5.86163C5.83237 5.85192 5.7865 5.82768 5.75047 5.79197C5.71444 5.75627 5.68985 5.71071 5.67984 5.66107C5.66982 5.61143 5.67483 5.55995 5.69421 5.51314C5.7136 5.46634 5.7465 5.42633 5.78874 5.39817C5.83098 5.37001 5.88066 5.35498 5.93148 5.35498C5.99932 5.35498 6.0644 5.38173 6.1125 5.42939C6.1606 5.47705 6.1878 5.54174 6.18816 5.60932Z" fill="white"/>
<path d="M6.84156 12.7461C6.90983 12.8821 6.02237 13.3935 5.9227 13.4466C5.54042 13.6411 4.70484 14.0654 4.49322 13.8356C4.2816 13.6057 6.77329 12.6101 6.84156 12.7461Z" fill="#FFED1D"/>
<path d="M14.3634 6.48925C14.1804 6.94217 13.2452 7.8997 12.9516 8.30229C12.6581 8.70489 14.5586 7.37469 14.7375 6.85513C14.9163 6.33556 14.545 6.03497 14.3634 6.48925Z" fill="#FFE000"/>
<path d="M7.45444 12.6208C7.45471 12.6521 7.44562 12.6828 7.42832 12.7089C7.41102 12.7351 7.3863 12.7555 7.35731 12.7676C7.32831 12.7797 7.29635 12.783 7.2655 12.7769C7.23466 12.7709 7.20631 12.7558 7.18408 12.7337C7.16185 12.7115 7.14674 12.6833 7.14067 12.6526C7.13461 12.6218 7.13785 12.59 7.15001 12.5611C7.16217 12.5322 7.18268 12.5076 7.20893 12.4904C7.23518 12.4731 7.26599 12.4641 7.29743 12.4644C7.33907 12.4644 7.37901 12.4808 7.40845 12.5102C7.4379 12.5395 7.45444 12.5793 7.45444 12.6208Z" fill="#FFED1D"/>
<path d="M10.2739 13.0286C10.3907 13.0815 10.5047 13.1405 10.6152 13.2054C11.0589 13.4325 11.4904 13.5345 11.9614 13.6855C12.1498 13.7454 12.4283 13.9902 12.1744 14.1534C11.829 14.3751 11.3552 14.0935 11.0507 13.9358C10.7759 13.7963 10.5199 13.6226 10.2889 13.4189C9.98171 13.1646 9.91891 12.8844 10.2739 13.0286Z" fill="#FFC900"/>
<path d="M3.89135 2.94037C2.65301 3.05326 2.56016 3.14575 2.44548 4.37938C2.33215 3.14575 2.23932 3.05326 1.00098 2.94037C2.23932 2.82612 2.33215 2.73363 2.44548 1.5C2.56016 2.73363 2.65301 2.8234 3.89135 2.94037Z" fill="#FFED1D"/>
<path d="M13.1416 2.95286C12.418 3.0195 12.3648 3.07255 12.2979 3.79341C12.231 3.07255 12.1777 3.0195 11.4541 2.95286C12.1777 2.88621 12.231 2.83317 12.2979 2.1123C12.3648 2.83317 12.418 2.88621 13.1416 2.95286Z" fill="#FFED1D"/>
<path style="mix-blend-mode:screen" d="M14.3283 2.72032C14.283 2.31885 14.1192 1.93979 13.8574 1.6312C13.5957 1.3226 13.2479 1.09836 12.8581 0.986901C12.4683 0.875439 12.0541 0.881774 11.6679 1.0051C11.2817 1.12843 10.941 1.3632 10.6889 1.67965C10.4368 1.9961 10.2847 2.37999 10.2518 2.78266C10.219 3.18532 10.3069 3.58864 10.5044 3.94149C10.7019 4.29434 11.0001 4.58083 11.3612 4.76465C11.7224 4.94847 12.1301 5.02135 12.5329 4.97404C13.0703 4.91091 13.5609 4.63844 13.8973 4.21615C14.2337 3.79385 14.3886 3.25608 14.3283 2.72032Z" fill="url(#paint2_radial_7810_36258)"/>
<path d="M2.6885 11.3406C1.96489 11.4058 1.91164 11.4602 1.84474 12.1797C1.77784 11.4602 1.72459 11.4058 1.00098 11.3406C1.72459 11.2739 1.77784 11.2195 1.84474 10.5C1.91164 11.2236 1.96489 11.2739 2.6885 11.3406Z" fill="#FFED1D"/>
<path style="mix-blend-mode:screen" d="M5.08428 8.31395C5.03931 7.91238 4.87565 7.53316 4.61406 7.22437C4.35247 6.91558 4.00472 6.69112 3.61492 6.57946C3.22511 6.46779 2.8108 6.47395 2.42451 6.59715C2.03823 6.72034 1.69736 6.95504 1.44513 7.27147C1.1929 7.58789 1.04067 7.9718 1.00774 8.37453C0.974807 8.77725 1.06265 9.18065 1.26015 9.53358C1.45764 9.8865 1.75589 10.1731 2.11706 10.3569C2.47824 10.5408 2.88609 10.6136 3.2889 10.5663C3.82609 10.5032 4.31639 10.2309 4.65276 9.8089C4.98914 9.38691 5.14426 8.84948 5.08428 8.31395Z" fill="url(#paint3_radial_7810_36258)"/>
<path d="M5.54651 1.76983C4.88434 1.83103 4.83518 1.88 4.77374 2.53966C4.71367 1.88 4.66315 1.83103 4.00098 1.76983C4.66315 1.70862 4.71367 1.65966 4.77374 1C4.84201 1.65966 4.88434 1.70862 5.54651 1.76983Z" fill="#FFED1D"/>
<path d="M14.7616 12.3829C14.2442 12.4305 14.2059 12.4686 14.1582 12.9841C14.1104 12.4686 14.0721 12.4305 13.5547 12.3829C14.0721 12.3353 14.1104 12.2972 14.1582 11.7817C14.2059 12.2972 14.2442 12.3353 14.7616 12.3829Z" fill="#FFED1D"/>
<path style="mix-blend-mode:screen" d="M15.6094 12.2169C15.5762 11.9311 15.4587 11.6615 15.2718 11.4422C15.0849 11.2228 14.8369 11.0636 14.5592 10.9846C14.2815 10.9056 13.9865 10.9104 13.7115 10.9984C13.4365 11.0864 13.1938 11.2536 13.0142 11.4789C12.8346 11.7042 12.726 11.9775 12.7022 12.2642C12.6784 12.551 12.7405 12.8383 12.8806 13.0899C13.0207 13.3415 13.2325 13.5461 13.4893 13.6779C13.7461 13.8096 14.0363 13.8626 14.3232 13.83C14.5141 13.8084 14.6988 13.7495 14.8667 13.6567C15.0347 13.5639 15.1826 13.439 15.3021 13.2892C15.4216 13.1394 15.5102 12.9675 15.5629 12.7835C15.6156 12.5996 15.6314 12.407 15.6094 12.2169Z" fill="url(#paint4_radial_7810_36258)"/>
<path style="mix-blend-mode:screen" d="M14.4586 7.25917C14.3121 5.98194 13.7901 4.77684 12.9586 3.79627C12.1272 2.81571 11.0237 2.10372 9.78757 1.75036C8.55147 1.39699 7.23835 1.41811 6.01426 1.81106C4.79017 2.204 3.7101 2.95112 2.91063 3.95792C2.11117 4.96472 1.62821 6.18599 1.52285 7.46728C1.41748 8.74857 1.69444 10.0323 2.3187 11.1562C2.94295 12.2801 3.88646 13.1936 5.02992 13.7812C6.17337 14.3689 7.4654 14.6042 8.74261 14.4575C10.4551 14.2609 12.0194 13.392 13.0913 12.0421C14.1632 10.6921 14.6551 8.9717 14.4586 7.25917Z" fill="url(#paint5_radial_7810_36258)"/>
<defs>
<radialGradient id="paint0_radial_7810_36258" cx="0" cy="0" r="1" gradientUnits="userSpaceOnUse" gradientTransform="translate(8.00611 6.92188) scale(7.14332 7.11615)">
<stop stop-color="#AA9800"/>
<stop offset="0.28" stop-color="#AA9400"/>
<stop offset="0.54" stop-color="#AA8900"/>
<stop offset="0.79" stop-color="#AA7600"/>
<stop offset="1" stop-color="#AA6100"/>
</radialGradient>
<radialGradient id="paint1_radial_7810_36258" cx="0" cy="0" r="1" gradientUnits="userSpaceOnUse" gradientTransform="translate(8.01083 6.95604) scale(6.87162 6.84549)">
<stop stop-color="#FFE400"/>
<stop offset="0.23" stop-color="#FFE000"/>
<stop offset="0.45" stop-color="#FFD500"/>
<stop offset="0.66" stop-color="#FFC200"/>
<stop offset="0.86" stop-color="#FFA800"/>
<stop offset="1" stop-color="#FF9200"/>
</radialGradient>
<radialGradient id="paint2_radial_7810_36258" cx="0" cy="0" r="1" gradientUnits="userSpaceOnUse" gradientTransform="translate(1754.09 1131.94) scale(61.2754 61.0422)">
<stop stop-color="white" stop-opacity="0.7"/>
<stop offset="0.01" stop-color="#FDF8ED" stop-opacity="0.69"/>
<stop offset="0.03" stop-color="#F5E1B4" stop-opacity="0.66"/>
<stop offset="0.05" stop-color="#EECF85" stop-opacity="0.64"/>
<stop offset="0.07" stop-color="#E9C060" stop-opacity="0.62"/>
<stop offset="0.09" stop-color="#E6B646" stop-opacity="0.61"/>
<stop offset="0.12" stop-color="#E4B036" stop-opacity="0.6"/>
<stop offset="0.14" stop-color="#E3AE31" stop-opacity="0.6"/>
<stop offset="0.25" stop-color="#BF9326" stop-opacity="0.46"/>
<stop offset="0.41" stop-color="#947218" stop-opacity="0.3"/>
<stop offset="0.56" stop-color="#71580E" stop-opacity="0.17"/>
<stop offset="0.71" stop-color="#594506" stop-opacity="0.07"/>
<stop offset="0.86" stop-color="#4A3A02" stop-opacity="0.02"/>
<stop offset="1" stop-color="#453600" stop-opacity="0"/>
</radialGradient>
<radialGradient id="paint3_radial_7810_36258" cx="0" cy="0" r="1" gradientUnits="userSpaceOnUse" gradientTransform="translate(1458.13 1385.09) scale(61.2753 61.0422)">
<stop stop-color="white" stop-opacity="0.7"/>
<stop offset="0.01" stop-color="#FDF8ED" stop-opacity="0.69"/>
<stop offset="0.03" stop-color="#F5E1B4" stop-opacity="0.66"/>
<stop offset="0.05" stop-color="#EECF85" stop-opacity="0.64"/>
<stop offset="0.07" stop-color="#E9C060" stop-opacity="0.62"/>
<stop offset="0.09" stop-color="#E6B646" stop-opacity="0.61"/>
<stop offset="0.12" stop-color="#E4B036" stop-opacity="0.6"/>
<stop offset="0.14" stop-color="#E3AE31" stop-opacity="0.6"/>
<stop offset="0.25" stop-color="#BF9326" stop-opacity="0.46"/>
<stop offset="0.41" stop-color="#947218" stop-opacity="0.3"/>
<stop offset="0.56" stop-color="#71580E" stop-opacity="0.17"/>
<stop offset="0.71" stop-color="#594506" stop-opacity="0.07"/>
<stop offset="0.86" stop-color="#4A3A02" stop-opacity="0.02"/>
<stop offset="1" stop-color="#453600" stop-opacity="0"/>
</radialGradient>
<radialGradient id="paint4_radial_7810_36258" cx="0" cy="0" r="1" gradientUnits="userSpaceOnUse" gradientTransform="translate(1296.44 1019.53) scale(31.2922 31.1732)">
<stop stop-color="white" stop-opacity="0.7"/>
<stop offset="0.01" stop-color="#FDF8ED" stop-opacity="0.69"/>
<stop offset="0.03" stop-color="#F5E1B4" stop-opacity="0.66"/>
<stop offset="0.05" stop-color="#EECF85" stop-opacity="0.64"/>
<stop offset="0.07" stop-color="#E9C060" stop-opacity="0.62"/>
<stop offset="0.09" stop-color="#E6B646" stop-opacity="0.61"/>
<stop offset="0.12" stop-color="#E4B036" stop-opacity="0.6"/>
<stop offset="0.14" stop-color="#E3AE31" stop-opacity="0.6"/>
<stop offset="0.25" stop-color="#BF9326" stop-opacity="0.46"/>
<stop offset="0.41" stop-color="#947218" stop-opacity="0.3"/>
<stop offset="0.56" stop-color="#71580E" stop-opacity="0.17"/>
<stop offset="0.71" stop-color="#594506" stop-opacity="0.07"/>
<stop offset="0.86" stop-color="#4A3A02" stop-opacity="0.02"/>
<stop offset="1" stop-color="#453600" stop-opacity="0"/>
</radialGradient>
<radialGradient id="paint5_radial_7810_36258" cx="0" cy="0" r="1" gradientUnits="userSpaceOnUse" gradientTransform="translate(8.00087 7.99981) scale(6.5011 6.50111)">
<stop stop-color="white" stop-opacity="0.7"/>
<stop offset="0.01" stop-color="#FDF8ED" stop-opacity="0.69"/>
<stop offset="0.06" stop-color="#F5E1B4" stop-opacity="0.66"/>
<stop offset="0.1" stop-color="#EECF85" stop-opacity="0.64"/>
<stop offset="0.15" stop-color="#E9C060" stop-opacity="0.62"/>
<stop offset="0.2" stop-color="#E6B646" stop-opacity="0.61"/>
<stop offset="0.25" stop-color="#E4B036" stop-opacity="0.6"/>
<stop offset="0.3" stop-color="#E3AE31" stop-opacity="0.6"/>
<stop offset="0.39" stop-color="#D9A72E" stop-opacity="0.56"/>
<stop offset="0.54" stop-color="#BF9326" stop-opacity="0.46"/>
<stop offset="0.73" stop-color="#947218" stop-opacity="0.3"/>
<stop offset="0.94" stop-color="#594506" stop-opacity="0.07"/>
<stop offset="1" stop-color="#453600" stop-opacity="0"/>
</radialGradient>
</defs>
</svg>
